
<svg xmlns="http://www.w3.org/2000/svg" viewBox="0 0 200 200">
  <defs>
    <linearGradient id="bodyGradient" x1="0%" y1="0%" x2="100%" y2="100%">
      <stop offset="0%" stop-color="#8B5CF6" />
      <stop offset="100%" stop-color="#0EA5E9" />
    </linearGradient>
  </defs>
  <!-- Robot body -->
  <rect x="60" y="70" width="80" height="90" rx="15" fill="url(#bodyGradient)" />
  <!-- Robot head -->
  <circle cx="100" cy="50" r="30" fill="#0EA5E9" />
  <!-- Robot eyes -->
  <circle cx="85" cy="45" r="8" fill="white" />
  <circle cx="115" cy="45" r="8" fill="white" />
  <circle cx="85" cy="43" r="4" fill="black" />
  <circle cx="115" cy="43" r="4" fill="black" />
  <!-- Robot thinking expression -->
  <path d="M90,60 L110,60" fill="none" stroke="white" stroke-width="3" />
  <!-- Robot arms in thinking pose -->
  <rect transform="rotate(30, 45, 95)" x="30" y="90" width="30" height="10" rx="5" fill="#0EA5E9" />
  <rect x="140" y="90" width="30" height="10" rx="5" transform="rotate(-30, 140, 95)" fill="#0EA5E9" />
  <!-- Robot hand on chin -->
  <circle cx="105" cy="75" r="8" fill="#0EA5E9" />
  <!-- Thought bubbles -->
  <circle cx="140" cy="30" r="10" fill="white" opacity="0.8" />
  <circle cx="155" cy="20" r="8" fill="white" opacity="0.7" />
  <circle cx="165" cy="10" r="6" fill="white" opacity="0.6" />
  <!-- Options in thought -->
  <circle cx="140" cy="30" r="3" fill="#F97316" />
  <circle cx="140" cy="30" r="6" fill="none" stroke="#F97316" stroke-width="2" />
  <circle cx="120" cy="30" r="8" fill="#8B5CF6" stroke="white" stroke-width="2" />
  <circle cx="160" cy="40" r="8" fill="#0EA5E9" stroke="white" stroke-width="2" />
</svg>
